<?xml version="1.0" standalone="no"?>
<!DOCTYPE svg PUBLIC "-//W3C//DTD SVG 20010904//EN"
 "http://www.w3.org/TR/2001/REC-SVG-20010904/DTD/svg10.dtd">
<svg version="1.0" xmlns="http://www.w3.org/2000/svg"
 width="33.000000pt" height="31.000000pt" viewBox="0 0 33.000000 31.000000"
 preserveAspectRatio="xMidYMid meet">

<g transform="translate(0.000000,31.000000) scale(0.100000,-0.100000)"
fill="#000000" stroke="none">
<path d="M144 296 c-11 -8 -36 -16 -55 -18 -27 -2 -35 -8 -37 -26 -2 -12 -14
-30 -28 -38 -23 -15 -24 -22 -24 -115 l0 -99 165 0 165 0 0 99 c0 93 -1 100
-24 115 -14 8 -26 26 -28 38 -2 19 -10 24 -40 26 -20 2 -42 10 -48 18 -15 18
-20 18 -46 0z m33 -12 c-3 -3 -12 -4 -19 -1 -8 3 -5 6 6 6 11 1 17 -2 13 -5z
m83 -73 c0 -44 -4 -52 -30 -71 -22 -16 -34 -19 -47 -11 -11 6 -24 6 -36 0 -13
-7 -25 -5 -47 11 -26 19 -30 27 -30 71 l0 49 95 0 95 0 0 -49z m-214 -28 c-10
-10 -19 5 -10 18 6 11 8 11 12 0 2 -7 1 -15 -2 -18z m254 6 c0 -5 -4 -9 -10
-9 -5 0 -10 7 -10 16 0 8 5 12 10 9 6 -3 10 -10 10 -16z m-202 -68 l22 -16
-50 -38 -50 -37 0 70 0 71 28 -17 c16 -9 38 -24 50 -33z m212 -21 l0 -70 -50
37 -49 37 46 33 c26 18 48 33 50 33 2 0 3 -32 3 -70z m-47 -57 l29 -23 -127 0
-127 0 63 49 64 50 35 -26 c19 -15 48 -37 63 -50z"/>
<path d="M105 220 c-4 -6 18 -10 60 -10 42 0 64 4 60 10 -3 6 -30 10 -60 10
-30 0 -57 -4 -60 -10z"/>
<path d="M100 170 c0 -6 28 -10 65 -10 37 0 65 4 65 10 0 6 -28 10 -65 10 -37
0 -65 -4 -65 -10z"/>
</g>
</svg>
