<?xml version="1.0" standalone="no"?>
<!DOCTYPE svg PUBLIC "-//W3C//DTD SVG 20010904//EN"
 "http://www.w3.org/TR/2001/REC-SVG-20010904/DTD/svg10.dtd">
<svg version="1.0" xmlns="http://www.w3.org/2000/svg"
 width="30.000000pt" height="30.000000pt" viewBox="0 0 30.000000 30.000000"
 preserveAspectRatio="xMidYMid meet">

<g transform="translate(0.000000,30.000000) scale(0.100000,-0.100000)"
fill="#000000" stroke="none">
<path d="M160 293 c0 -6 14 -13 30 -17 39 -7 79 -47 86 -86 4 -16 11 -30 17
-30 20 0 -4 66 -36 97 -31 32 -97 56 -97 36z"/>
<path d="M20 258 c-11 -18 -20 -43 -20 -56 0 -77 127 -202 205 -202 30 0 85
35 85 54 0 7 -16 28 -36 47 l-35 34 -24 -27 -23 -26 -30 18 c-17 11 -38 33
-46 49 -15 28 -15 30 3 36 34 11 34 36 -1 72 -40 41 -53 41 -78 1z m63 -16
c15 -16 24 -32 20 -35 -7 -8 -63 41 -63 55 0 15 16 8 43 -20z m-13 -65 c0 -40
66 -107 106 -107 26 0 64 -24 64 -42 0 -19 -69 -6 -113 22 -71 45 -130 153
-100 183 13 13 43 -26 43 -56z m197 -133 c-10 -10 -68 47 -60 59 3 5 19 -5 36
-22 17 -17 28 -34 24 -37z"/>
<path d="M160 245 c0 -3 11 -10 25 -15 14 -5 34 -23 43 -40 9 -16 20 -30 24
-30 14 0 -15 61 -35 75 -21 14 -57 21 -57 10z"/>
<path d="M160 205 c0 -7 38 -45 45 -45 10 0 4 19 -11 34 -15 15 -34 21 -34 11z"/>
</g>
</svg>
