<?xml version="1.0" standalone="no"?>
<!DOCTYPE svg PUBLIC "-//W3C//DTD SVG 20010904//EN"
 "http://www.w3.org/TR/2001/REC-SVG-20010904/DTD/svg10.dtd">
<svg version="1.0" xmlns="http://www.w3.org/2000/svg"
 width="22.000000pt" height="30.000000pt" viewBox="0 0 22.000000 30.000000"
 preserveAspectRatio="xMidYMid meet">

<g transform="translate(0.000000,30.000000) scale(0.100000,-0.100000)"
fill="#000000" stroke="none">
<path d="M49 271 c-36 -36 -38 -79 -7 -129 15 -24 18 -37 10 -40 -13 -4 -55
-92 -48 -99 2 -3 14 1 26 7 15 8 30 9 51 1 20 -7 38 -7 58 0 21 8 36 7 51 -1
12 -6 24 -10 26 -7 7 7 -35 95 -47 99 -7 2 -3 17 10 38 11 19 21 50 21 68 0
45 -46 92 -90 92 -22 0 -41 -9 -61 -29z m113 -8 c32 -37 31 -60 -8 -133 -21
-39 -41 -70 -44 -70 -3 0 -23 31 -44 70 -27 50 -35 76 -31 92 13 40 36 58 75
58 23 0 43 -7 52 -17z m-80 -193 c7 -11 20 -20 28 -20 8 0 21 9 28 20 16 27
26 25 40 -5 15 -33 16 -33 -10 -34 -60 -3 -138 -1 -138 5 0 11 25 54 32 54 4
0 13 -9 20 -20z"/>
<path d="M87 234 c-23 -23 7 -69 37 -58 25 10 17 58 -9 62 -12 2 -24 0 -28 -4z
m41 -26 c-3 -7 -11 -13 -18 -13 -7 0 -15 6 -17 13 -3 7 4 12 17 12 13 0 20 -5
18 -12z"/>
</g>
</svg>
