<!-- sprite.svg -->

<svg version="1.0" xmlns="http://www.w3.org/2000/svg">
    <symbol id="call" viewBox="0 0 30.000000 30.000000">
        <g transform="translate(0.000000,30.000000) scale(0.100000,-0.100000)"
            stroke="none">
            <path d="M160 293 c0 -6 14 -13 30 -17 39 -7 79 -47 86 -86 4 -16 11 -30 17
            -30 20 0 -4 66 -36 97 -31 32 -97 56 -97 36z"/>
            <path d="M20 258 c-11 -18 -20 -43 -20 -56 0 -77 127 -202 205 -202 30 0 85
            35 85 54 0 7 -16 28 -36 47 l-35 34 -24 -27 -23 -26 -30 18 c-17 11 -38 33
            -46 49 -15 28 -15 30 3 36 34 11 34 36 -1 72 -40 41 -53 41 -78 1z m63 -16
            c15 -16 24 -32 20 -35 -7 -8 -63 41 -63 55 0 15 16 8 43 -20z m-13 -65 c0 -40
            66 -107 106 -107 26 0 64 -24 64 -42 0 -19 -69 -6 -113 22 -71 45 -130 153
            -100 183 13 13 43 -26 43 -56z m197 -133 c-10 -10 -68 47 -60 59 3 5 19 -5 36
            -22 17 -17 28 -34 24 -37z"/>
            <path d="M160 245 c0 -3 11 -10 25 -15 14 -5 34 -23 43 -40 9 -16 20 -30 24
            -30 14 0 -15 61 -35 75 -21 14 -57 21 -57 10z"/>
            <path d="M160 205 c0 -7 38 -45 45 -45 10 0 4 19 -11 34 -15 15 -34 21 -34 11z"/>
        </g>
    </symbol>
    <symbol id="place" viewBox="0 0 22.000000 30.000000">
        <g transform="translate(0.000000,30.000000) scale(0.100000,-0.100000)"
            stroke="none">
            <path d="M49 271 c-36 -36 -38 -79 -7 -129 15 -24 18 -37 10 -40 -13 -4 -55
            -92 -48 -99 2 -3 14 1 26 7 15 8 30 9 51 1 20 -7 38 -7 58 0 21 8 36 7 51 -1
            12 -6 24 -10 26 -7 7 7 -35 95 -47 99 -7 2 -3 17 10 38 11 19 21 50 21 68 0
            45 -46 92 -90 92 -22 0 -41 -9 -61 -29z m113 -8 c32 -37 31 -60 -8 -133 -21
            -39 -41 -70 -44 -70 -3 0 -23 31 -44 70 -27 50 -35 76 -31 92 13 40 36 58 75
            58 23 0 43 -7 52 -17z m-80 -193 c7 -11 20 -20 28 -20 8 0 21 9 28 20 16 27
            26 25 40 -5 15 -33 16 -33 -10 -34 -60 -3 -138 -1 -138 5 0 11 25 54 32 54 4
            0 13 -9 20 -20z"/>
            <path d="M87 234 c-23 -23 7 -69 37 -58 25 10 17 58 -9 62 -12 2 -24 0 -28 -4z
            m41 -26 c-3 -7 -11 -13 -18 -13 -7 0 -15 6 -17 13 -3 7 4 12 17 12 13 0 20 -5
            18 -12z"/>
        </g>
    </symbol>
    <symbol id="post" viewBox="0 0 33.000000 31.000000">
        <g transform="translate(0.000000,31.000000) scale(0.100000,-0.100000)"
            stroke="none">
            <path d="M144 296 c-11 -8 -36 -16 -55 -18 -27 -2 -35 -8 -37 -26 -2 -12 -14
            -30 -28 -38 -23 -15 -24 -22 -24 -115 l0 -99 165 0 165 0 0 99 c0 93 -1 100
            -24 115 -14 8 -26 26 -28 38 -2 19 -10 24 -40 26 -20 2 -42 10 -48 18 -15 18
            -20 18 -46 0z m33 -12 c-3 -3 -12 -4 -19 -1 -8 3 -5 6 6 6 11 1 17 -2 13 -5z
            m83 -73 c0 -44 -4 -52 -30 -71 -22 -16 -34 -19 -47 -11 -11 6 -24 6 -36 0 -13
            -7 -25 -5 -47 11 -26 19 -30 27 -30 71 l0 49 95 0 95 0 0 -49z m-214 -28 c-10
            -10 -19 5 -10 18 6 11 8 11 12 0 2 -7 1 -15 -2 -18z m254 6 c0 -5 -4 -9 -10
            -9 -5 0 -10 7 -10 16 0 8 5 12 10 9 6 -3 10 -10 10 -16z m-202 -68 l22 -16
            -50 -38 -50 -37 0 70 0 71 28 -17 c16 -9 38 -24 50 -33z m212 -21 l0 -70 -50
            37 -49 37 46 33 c26 18 48 33 50 33 2 0 3 -32 3 -70z m-47 -57 l29 -23 -127 0
            -127 0 63 49 64 50 35 -26 c19 -15 48 -37 63 -50z"/>
            <path d="M105 220 c-4 -6 18 -10 60 -10 42 0 64 4 60 10 -3 6 -30 10 -60 10
            -30 0 -57 -4 -60 -10z"/>
            <path d="M100 170 c0 -6 28 -10 65 -10 37 0 65 4 65 10 0 6 -28 10 -65 10 -37
            0 -65 -4 -65 -10z"/>
        </g>
    </symbol>
</svg>

